<svg width="96" height="96" viewBox="0 0 96 96" fill="none" xmlns="http://www.w3.org/2000/svg">
  <rect width="96" height="96" rx="48" fill="#2A1B16"/>
  <circle cx="48" cy="48" r="36" stroke="#C9A227" stroke-width="3"/>
  <path d="M28 52C28 38.745 37.06 30 49.26 30C56.24 30 61.54 32.65 65.24 36.88L59.74 42.19C57.18 39.54 54.24 38.02 49.83 38.02C42.28 38.02 36.97 43.9 36.97 52C36.97 60.29 42.47 66.17 50.78 66.17C54.05 66.17 56.89 65.51 58.51 64.46V56.82H49.64V49.27H67.1V68.79C63.74 71.44 57.94 74 50.21 74C37.44 74 28 65.6 28 52Z" fill="#C9A227"/>
</svg>
